<?xml version="1.0" encoding="utf-8"?>
<!-- Generator: Adobe Illustrator 16.0.4, SVG Export Plug-In . SVG Version: 6.00 Build 0)  -->
<!DOCTYPE svg PUBLIC "-//W3C//DTD SVG 1.1//EN" "http://www.w3.org/Graphics/SVG/1.1/DTD/svg11.dtd">
<svg version="1.1" id="Layer_1" xmlns="http://www.w3.org/2000/svg" xmlns:xlink="http://www.w3.org/1999/xlink" x="0px" y="0px"
	 width="136px" height="30px" viewBox="0 0 663.303 145.813" enable-background="new 0 0 663.303 145.813"
	 xml:space="preserve">
<polygon fill="#B7B9BA" points="485.124,120.398 485.124,41.469 524.584,41.469 524.584,5.596 409.781,5.593 409.781,41.469 
	449.242,41.469 449.242,120.398 "/>
<polygon fill="#B7B9BA" points="49.719,84.518 114.803,46.94 114.803,5.596 0,5.593 0,41.469 65.084,41.469 0,79.045 0,120.398 
	114.803,120.398 114.803,84.518 "/>
<path fill="#B7B9BA" d="M332.107,122.442c-18.294,0-38.722-5.539-38.722-5.539V86.546c0,0,24.88,6.144,36.603,6.144
	c11.036,0,16.563-1.428,16.563-6.751c0-5.117-7.012-6.361-18.053-9.808l-7.039-2.272c-13.804-4.508-28.074-12.345-28.074-33.042
	c0-33.815,29.567-37.286,54.887-37.286c21.488,0,36.8,6.116,36.8,6.116v27.923c0,0-22.134-5.726-34.669-5.726
	c-9.582,0-14.896,1.202-14.896,6.337c0,4.488,7.007,5.545,15.751,7.967l7.005,2.053c14.684,4.314,30.863,11.886,30.863,34.67
	C389.126,121.007,357.415,122.442,332.107,122.442"/>
<path fill="#B7B9BA" d="M599.269,120.398H548.5V5.593h48.737c39.541,0,66.065,3.673,66.065,57.146
	C663.303,115.84,638.417,120.398,599.269,120.398 M603.853,37.673h-19.472v50.578h19.886c17.012,0,23.154-0.906,23.154-25.513
	C627.421,37.133,620.454,37.673,603.853,37.673"/>
<path fill="#009FBB" d="M225.615,0.19v70.475L184.815,0c-13.035,1.056-25.772,3.166-38.123,6.252v86.334
	c0,24.092,14.843,44.713,35.881,53.228v-90.5l50.225,86.991c17.155-9.926,28.697-28.474,28.697-49.719V6.253
	C249.854,3.343,237.869,1.3,225.615,0.19z"/>
</svg>
